<svg xmlns:xlink="http://www.w3.org/1999/xlink" xmlns="http://www.w3.org/2000/svg" width="24" height="25" viewBox="0 0 24 25" fill="none"><path d="M11.8766 24.3013L3.23447 21.9021L1.30859 0.30127H22.4706L20.5427 21.8988L11.8766 24.3013Z" fill="#264DE4"></path><path d="M18.8923 20.523L20.5397 2.06689H11.8896V22.4643L18.8923 20.523Z" fill="#2965F1"></path><path d="M5.72331 10.0789L5.96072 12.7281H11.8893V10.0789H5.72331ZM5.24621 4.7168L5.48698 7.36604H11.8893V4.7168H5.24609H5.24621ZM11.8893 16.9594L11.8776 16.9625L8.92715 16.1658L8.73849 14.0529H6.07907L6.45015 18.2126L11.8769 19.719L11.8891 19.7157V16.9594H11.8893Z" fill="#EBEBEB"></path><path d="M18.039 10.0789L18.5172 4.7168H11.8809V7.36604H15.6139L15.3729 10.0789H11.881V12.7281H15.1433L14.8357 16.164L11.8809 16.9615V19.7177L17.3119 18.2125L17.3517 17.7649L17.9743 10.7903L18.0389 10.0789H18.039Z" fill="#FFFFFF"></path></svg>