<svg xmlns:xlink="http://www.w3.org/1999/xlink" xmlns="http://www.w3.org/2000/svg" width="24" height="25" viewBox="0 0 24 25" fill="none"><path d="M3.52526 21.9007L1.59961 0.300781H22.7496L20.8216 21.9024L12.1695 24.3009L3.52526 21.9007Z" fill="#E34E26"></path><path d="M12.1748 2.06641V22.4662L19.1711 20.5269L20.8195 2.06641H12.1748Z" fill="#EF662A"></path><path d="M5.53906 4.71631L6.25315 12.7276H15.4353L15.1272 16.1638L12.1707 16.9631L9.21987 16.1649L9.02258 13.9586H6.36338L6.74363 18.2118L12.1701 19.7189L17.6034 18.2118L18.3318 10.0787H8.67614L8.43369 7.36576H18.5638H18.5719L18.8092 4.71631H5.53906Z" fill="#FFFFFF"></path><path d="M12.1741 4.71582H5.53906L6.25315 12.7271H12.1741V10.0782H8.67614L8.4337 7.36527H12.1741V4.71582Z" fill="#EBEBEB"></path><path d="M12.174 16.9614L12.1706 16.9625L9.21978 16.1644L9.02249 13.958H6.36328L6.74353 18.2112L12.17 19.7183L12.174 19.7172V16.9614Z" fill="#EBEBEB"></path></svg>