<svg xmlns:xlink="http://www.w3.org/1999/xlink" xmlns="http://www.w3.org/2000/svg" width="24" height="24" viewBox="0 0 24 24" fill="none"><path d="M1.66895 0L1.67228 0.266565C1.67411 0.413175 2.09887 5.26735 2.61619 11.0536L3.55676 21.574L7.78421 22.7577C10.1093 23.4086 12.0596 23.9445 12.1183 23.9487C12.1769 23.9528 14.153 23.4222 16.5096 22.7697C20.2879 21.7236 20.798 21.566 20.8251 21.4365C20.8627 21.2561 22.713 0.383258 22.7111 0.159939L22.7098 0H12.1893H1.66895Z" fill="#FFFFFF"></path><path d="M7.81848 22.8284L3.55344 21.6362L3.49771 21.3208C3.44816 21.0403 1.59863 0.382941 1.59863 0.109999C1.59863 0.0112149 2.67852 0 12.1901 0C22.2302 0 22.7816 0.00647583 22.7808 0.124397C22.7775 0.633714 20.8631 21.5647 20.816 21.6063C20.7566 21.659 12.5015 23.9588 12.2257 23.9995C12.1475 24.0111 10.1642 23.4841 7.81848 22.8284ZM14.8795 18.616C16.313 18.2206 17.5066 17.8767 17.5319 17.8518C17.5571 17.8269 17.7249 16.1272 17.9046 14.0746C18.0844 12.0221 18.2496 10.2068 18.2718 10.0406L18.3121 9.7385H15.2156H12.1191V11.0536V12.3686H13.7909H15.4627L15.4295 12.5285C15.4112 12.6165 15.3401 13.3725 15.2715 14.2084C15.1988 15.0942 15.1126 15.7625 15.0649 15.8102C15.0199 15.8552 14.3386 16.0638 13.551 16.2737L12.1191 16.6554V17.9951C12.1191 18.9095 12.1435 19.3348 12.1961 19.3348C12.2384 19.3348 13.4459 19.0113 14.8795 18.616ZM18.2713 8.0858C18.2243 7.73748 17.8058 3.0657 17.8058 2.88955C17.8058 2.78255 17.5597 2.77227 14.998 2.77227H12.1901V4.14741V5.52255L13.4519 5.57118C14.1458 5.59793 14.8762 5.63864 15.0748 5.66164L15.436 5.70347L15.5237 6.77912C15.5719 7.37073 15.6294 7.97473 15.6514 8.12134L15.6914 8.3879H17.0017H18.3121L18.2713 8.0858Z" fill="#EAEBEC"></path><path d="M7.78422 22.7576L3.55678 21.574L2.6162 11.0536C2.09888 5.26732 1.67412 0.413175 1.67228 0.266565L1.66895 0H12.1894H22.7098L22.7112 0.159939C22.7131 0.383258 20.8628 21.2561 20.8251 21.4365C20.798 21.566 20.288 21.7236 16.5096 22.7697C14.153 23.4223 12.1769 23.9528 12.1183 23.9487C12.0596 23.9445 10.1093 23.4086 7.78422 22.7576ZM14.8819 18.6662C16.3433 18.26 17.5597 17.894 17.585 17.853C17.6104 17.812 17.7849 16.0254 17.973 13.8828C18.161 11.7403 18.3302 9.93131 18.349 9.8629C18.3814 9.74536 18.1327 9.7385 13.8434 9.7385H9.30346L9.49676 7.69484C9.60307 6.57082 9.69261 5.64826 9.69574 5.6447C9.69887 5.64115 10.3652 5.61989 11.1764 5.59748C12.5066 5.56071 15.2498 5.66683 15.3416 5.7586C15.3758 5.79288 15.6014 8.00576 15.6014 8.30783C15.6014 8.45678 15.6215 8.45899 16.9788 8.45899H18.3562L18.3237 8.15688C18.3059 7.99072 18.1892 6.70321 18.0645 5.29575L17.8376 2.73673L12.5256 2.71851C8.29952 2.70401 7.21337 2.71854 7.21291 2.78959C7.21254 2.83871 7.18161 3.15079 7.14408 3.48311C7.05324 4.28726 6.36048 12.057 6.36048 12.2716V12.4397H10.8806H15.4006L15.3603 12.7063C15.3382 12.8529 15.2679 13.5966 15.2042 14.359C15.1405 15.1213 15.0678 15.7648 15.0428 15.7889C14.9765 15.8524 12.3174 16.5628 12.1516 16.5612C12.0746 16.5605 11.3879 16.3891 10.6255 16.1804L9.23938 15.801L9.18855 15.2044C9.1606 14.8762 9.11807 14.4078 9.09404 14.1635L9.05036 13.7192H7.70542H6.36048L6.36346 13.9858C6.36903 14.4843 6.69229 17.8421 6.73923 17.8891C6.79352 17.9434 11.9592 19.3954 12.1183 19.4011C12.1769 19.4032 13.4206 19.0725 14.8819 18.6662Z" fill="#F0BE25"></path><path d="M7.78422 22.7576L3.55678 21.574L2.6162 11.0536C2.09888 5.26732 1.67412 0.413175 1.67228 0.266565L1.66895 0H12.1894H22.7098L22.7112 0.159939C22.7131 0.383258 20.8628 21.2561 20.8251 21.4365C20.798 21.566 20.288 21.7236 16.5096 22.7697C14.153 23.4223 12.1769 23.9528 12.1183 23.9487C12.0596 23.9445 10.1093 23.4086 7.78422 22.7576ZM15.6678 21.1741C17.5275 20.661 19.0839 20.2052 19.1266 20.1612C19.193 20.0927 20.7991 2.49039 20.7927 1.9015L20.7905 1.70601H16.4899H12.1894V2.2036V2.70119H9.70143C7.75878 2.70119 7.21336 2.72066 7.21291 2.79004C7.21254 2.83891 7.18161 3.15079 7.14408 3.48311C7.05324 4.28726 6.36048 12.057 6.36048 12.2716V12.4397H9.27493H12.1894V14.5011C12.1894 16.1036 12.1696 16.5623 12.1005 16.5612C12.0516 16.5605 11.3879 16.3891 10.6255 16.1804L9.23938 15.801L9.18855 15.2044C9.1606 14.8762 9.11807 14.4078 9.09404 14.1635L9.05036 13.7192H7.70542H6.36048L6.36346 13.9858C6.37198 14.7482 6.70182 17.8605 6.77917 17.9083C6.82619 17.9374 8.06272 18.2927 9.52701 18.6979L12.1894 19.4346V20.7708C12.1894 21.5058 12.2113 22.1071 12.238 22.1071C12.2648 22.1071 13.8082 21.6873 15.6678 21.1741ZM9.48927 7.71394C9.59146 6.60043 9.689 5.67677 9.70602 5.66137C9.72304 5.64597 10.2888 5.6181 10.9632 5.59944L12.1894 5.56552V7.65201V9.7385H10.7464H9.30346L9.48927 7.71394Z" fill="#E4A126"></path></svg>