<svg xmlns="http://www.w3.org/2000/svg" xmlns:xlink="http://www.w3.org/1999/xlink" id="Layer_1" x="0px" y="0px" viewBox="0 0 24 24" style="enable-background:new 0 0 24 24;" xml:space="preserve" width="24"  height="24" ><style type="text/css">	.st0{fill:#EF372C;}</style><path class="st0" d="M7.63,4.03c0.96,0.56,1.92,1.13,2.89,1.67c0.25,0.14,0.34,0.31,0.34,0.6c-0.01,1.94-0.01,3.87-0.01,5.81 c0,0.13,0,0.26,0,0.44c0.14-0.07,0.25-0.12,0.34-0.17c0.64-0.37,1.28-0.75,1.93-1.11c0.21-0.11,0.29-0.24,0.28-0.48 c-0.01-0.93,0-1.85-0.01-2.78c0-0.27,0.08-0.44,0.32-0.58c0.91-0.51,1.82-1.03,2.72-1.56c0.19-0.11,0.34-0.11,0.53,0 c0.91,0.54,1.83,1.05,2.74,1.59c0.13,0.08,0.25,0.27,0.25,0.41c0.02,1.07,0.01,2.14,0.02,3.21c0,0.23-0.1,0.34-0.28,0.45 c-0.83,0.47-1.64,0.95-2.47,1.41c-0.24,0.13-0.31,0.28-0.3,0.54c0.02,0.94,0,1.88,0.01,2.81c0,0.22-0.08,0.35-0.26,0.46 c-1.93,1.1-3.85,2.21-5.77,3.32c-0.22,0.13-0.39,0.11-0.6-0.01c-1.9-1.1-3.8-2.2-5.71-3.29c-0.21-0.12-0.3-0.26-0.3-0.51 c0.01-3.35,0.01-6.71,0-10.06c0-0.25,0.1-0.39,0.31-0.51c0.97-0.55,1.92-1.12,2.88-1.68C7.53,4.03,7.58,4.03,7.63,4.03z  M10.38,19.55c0-0.9-0.01-1.75,0.01-2.6c0-0.25-0.07-0.39-0.29-0.51c-0.82-0.45-1.63-0.93-2.45-1.37c-0.23-0.13-0.31-0.28-0.31-0.54 c0.01-1.83-0.05-3.66,0.03-5.48C7.4,8.2,7.18,7.69,6.39,7.37C5.83,7.14,5.33,6.78,4.76,6.45C4.75,6.61,4.74,6.7,4.74,6.79 c0,3.08,0,6.16-0.01,9.23c0,0.25,0.1,0.36,0.29,0.47c1.67,0.95,3.33,1.91,4.99,2.87C10.12,19.43,10.23,19.47,10.38,19.55z  M10.36,6.48c-0.13,0.07-0.24,0.11-0.34,0.17C9.39,7.02,8.76,7.4,8.12,7.74C7.87,7.88,7.79,8.03,7.79,8.31 C7.8,10.17,7.8,12.03,7.8,13.9c0,0.13,0.01,0.25,0.02,0.43c0.79-0.46,1.53-0.89,2.27-1.3c0.22-0.12,0.3-0.25,0.3-0.5 c-0.01-1.9-0.01-3.8-0.01-5.7C10.38,6.73,10.37,6.62,10.36,6.48z M10.86,19.54c0.1-0.04,0.15-0.06,0.2-0.08c1.74-1,3.48-2,5.2-3.01 c0.11-0.06,0.2-0.26,0.2-0.4c0.02-0.76,0.01-1.51,0.01-2.27c0-0.1-0.02-0.2-0.03-0.3c-0.07,0.01-0.09,0.01-0.11,0.02 c-1.77,1.01-3.54,2.02-5.31,3.03c-0.07,0.04-0.15,0.14-0.15,0.21C10.86,17.65,10.86,18.58,10.86,19.54z M16.22,13 c-0.14-0.09-0.24-0.15-0.34-0.21c-0.64-0.37-1.29-0.74-1.93-1.12c-0.21-0.13-0.37-0.13-0.58,0c-1.52,0.89-3.05,1.76-4.58,2.64 c-0.23,0.13-0.46,0.27-0.74,0.44c0.84,0.48,1.63,0.93,2.43,1.36c0.09,0.05,0.25,0,0.35-0.05c0.83-0.46,1.65-0.93,2.47-1.4 C14.26,14.12,15.22,13.57,16.22,13z M16.48,12.59c0-0.68-0.06-1.27,0.02-1.85c0.11-0.84-0.19-1.33-0.96-1.65 c-0.55-0.23-1.06-0.59-1.63-0.92c0,0.98,0,1.89,0.01,2.79c0,0.07,0.06,0.16,0.12,0.2C14.81,11.64,15.61,12.09,16.48,12.59z  M16.93,12.59c0.67-0.39,1.26-0.78,1.9-1.08c0.57-0.26,0.78-0.62,0.72-1.25c-0.06-0.67-0.01-1.35-0.01-2.1 c-0.88,0.5-1.68,0.96-2.48,1.43c-0.06,0.04-0.11,0.16-0.11,0.24C16.93,10.73,16.93,11.61,16.93,12.59z M4.99,6.04 c0.82,0.47,1.58,0.9,2.33,1.35c0.18,0.11,0.31,0.1,0.49,0C8.49,6.98,9.18,6.59,9.87,6.2c0.08-0.04,0.14-0.1,0.24-0.18 C9.29,5.55,8.51,5.1,7.72,4.66c-0.08-0.05-0.24-0.05-0.32,0C6.62,5.1,5.84,5.55,4.99,6.04z M14.14,7.76 c0.63,0.36,1.23,0.65,1.75,1.03c0.59,0.44,1.07,0.41,1.65-0.01c0.53-0.38,1.12-0.67,1.73-1.02c-0.85-0.49-1.64-0.95-2.44-1.4 c-0.07-0.04-0.21-0.02-0.29,0.03C15.76,6.83,14.98,7.28,14.14,7.76z" fill="#EF372C"></path></svg>