<svg xmlns:xlink="http://www.w3.org/1999/xlink" xmlns="http://www.w3.org/2000/svg" width="24" height="25" viewBox="0 0 24 25" fill="none"><g clip-path="url(#clip0_2522_857)" fill="none"><path d="M12 24.458C18.6274 24.458 24 19.0854 24 12.458C24 5.83059 18.6274 0.458008 12 0.458008C5.37258 0.458008 0 5.83059 0 12.458C0 19.0854 5.37258 24.458 12 24.458Z" fill="#5C2D91"></path><path opacity="0.1" d="M3.68254 3.83301C2.46265 4.92006 1.47761 6.2448 0.787809 7.72601C0.098003 9.20722 -0.282039 10.8137 -0.329022 12.447C-0.376005 14.0803 -0.08894 15.7059 0.514578 17.2243C1.1181 18.7428 2.02535 20.1219 3.18073 21.2773C4.33612 22.4327 5.71528 23.34 7.2337 23.9435C8.75211 24.547 10.3778 24.8341 12.0111 24.7871C13.6443 24.7401 15.2508 24.36 16.732 23.6702C18.2133 22.9804 19.538 21.9954 20.625 20.7755L3.68254 3.83301Z" fill="#FFFFFF"></path><path d="M2.77489 14.4269C2.70489 14.428 2.63542 14.4146 2.57088 14.3875C2.50633 14.3604 2.44811 14.3202 2.39989 14.2694C2.35035 14.2205 2.31119 14.1621 2.28478 14.0976C2.25836 14.0332 2.24522 13.9641 2.24614 13.8944C2.24564 13.8249 2.25897 13.7559 2.28537 13.6915C2.31176 13.6271 2.35069 13.5686 2.39989 13.5194C2.44764 13.4678 2.50568 13.4268 2.57028 13.399C2.63487 13.3712 2.70458 13.3573 2.77489 13.3582C2.8451 13.358 2.91459 13.3722 2.97909 13.4C3.04359 13.4277 3.10172 13.4684 3.14989 13.5194C3.19994 13.5682 3.23967 13.6265 3.26673 13.6909C3.29378 13.7554 3.30761 13.8246 3.30739 13.8944C3.30804 13.9644 3.29441 14.0337 3.26733 14.0982C3.24025 14.1627 3.20028 14.2209 3.14989 14.2694C3.10126 14.3197 3.04296 14.3595 2.97851 14.3866C2.91406 14.4136 2.84479 14.4274 2.77489 14.4269Z" fill="#FFFFFF"></path><path d="M10.2257 14.3328H9.2432L5.72945 8.88033C5.64193 8.74599 5.56901 8.60267 5.51195 8.45283H5.48195C5.51535 8.76415 5.52787 9.07735 5.51945 9.39033V14.3328H4.7207V7.49658H5.75945L9.17945 12.8516C9.32195 13.0741 9.41445 13.2266 9.45695 13.3091H9.4757C9.43613 12.9756 9.41984 12.6398 9.42695 12.3041V7.49658H10.2257V14.3328Z" fill="#FFFFFF"></path><path d="M15.6337 14.3328H12V7.49658H15.465V8.22033H12.8175V10.4928H15.285V11.2128H12.8175V13.5828H15.6375L15.6337 14.3328Z" fill="#FFFFFF"></path><path d="M20.9993 8.22033H19.0118V14.3328H18.213V8.22033H16.248V7.49658H20.9993V8.22033Z" fill="#FFFFFF"></path><path d="M9.79435 18.9827C9.52362 19.1138 9.22498 19.1769 8.92435 19.1665C8.72458 19.1755 8.5252 19.1416 8.33958 19.0673C8.15395 18.9929 7.98638 18.8797 7.8481 18.7352C7.57256 18.4268 7.42738 18.0235 7.4431 17.6102C7.43302 17.3864 7.46798 17.1629 7.54593 16.9529C7.62387 16.7429 7.74321 16.5507 7.89685 16.3877C8.04658 16.2343 8.22659 16.1138 8.42544 16.0337C8.62428 15.9537 8.83761 15.9159 9.05185 15.9227C9.30825 15.9139 9.56367 15.9586 9.80185 16.054V16.429C9.57253 16.302 9.31394 16.2374 9.05185 16.2415C8.88662 16.2368 8.72233 16.2679 8.57024 16.3326C8.41814 16.3973 8.28182 16.4942 8.1706 16.6165C7.93673 16.8829 7.81569 17.2299 7.8331 17.584C7.81559 17.9194 7.92846 18.2486 8.1481 18.5027C8.25346 18.616 8.38207 18.7052 8.52512 18.7641C8.66817 18.823 8.82228 18.8502 8.97685 18.844C9.26478 18.8515 9.54913 18.7788 9.7981 18.634L9.79435 18.9827Z" fill="#F2F2F2"></path><path d="M11.3295 19.1669C11.1802 19.1718 11.0316 19.1445 10.8938 19.0869C10.756 19.0293 10.6322 18.9428 10.5307 18.8332C10.3257 18.6043 10.2192 18.3038 10.2345 17.9969C10.2251 17.8361 10.2478 17.6751 10.3012 17.5232C10.3547 17.3712 10.4378 17.2314 10.5457 17.1119C10.6559 17.0044 10.787 16.9206 10.9308 16.8658C11.0746 16.811 11.2282 16.7863 11.382 16.7932C11.5273 16.7854 11.6726 16.8092 11.8079 16.863C11.9432 16.9167 12.0653 16.9991 12.1657 17.1044C12.365 17.3446 12.4656 17.6516 12.447 17.9632C12.4627 18.2794 12.3536 18.5891 12.1432 18.8257C12.0399 18.9374 11.9137 19.0257 11.7734 19.0845C11.633 19.1434 11.4816 19.1715 11.3295 19.1669ZM11.3557 17.1157C11.2526 17.1113 11.1498 17.1303 11.055 17.1712C10.9602 17.2121 10.8758 17.2739 10.8082 17.3519C10.6639 17.5377 10.592 17.7696 10.6057 18.0044C10.5926 18.2323 10.6648 18.4569 10.8082 18.6344C10.8765 18.7113 10.9611 18.7721 11.0558 18.8123C11.1505 18.8525 11.2529 18.8712 11.3557 18.8669C11.4564 18.8729 11.557 18.8557 11.65 18.8167C11.7429 18.7777 11.8257 18.7179 11.892 18.6419C12.0283 18.4556 12.0947 18.2273 12.0795 17.9969C12.0943 17.7655 12.028 17.536 11.892 17.3482C11.8266 17.2706 11.7442 17.2093 11.6512 17.1689C11.5581 17.1286 11.457 17.1104 11.3557 17.1157Z" fill="#F2F2F2"></path><path d="M14.197 17.228C14.116 17.175 14.0199 17.1499 13.9233 17.1568C13.8477 17.1595 13.774 17.1808 13.7086 17.2187C13.6432 17.2566 13.5882 17.3101 13.5483 17.3743C13.4367 17.551 13.3829 17.7581 13.3945 17.9668V19.1143H13.0195V16.8643H13.3945V17.333C13.4358 17.188 13.5178 17.0578 13.6308 16.958C13.7286 16.8731 13.8538 16.8265 13.9833 16.8268C14.0558 16.8235 14.1282 16.8337 14.197 16.8568V17.228Z" fill="#F2F2F2"></path><path d="M16.3948 18.0827H14.8085C14.7979 18.2924 14.8661 18.4984 14.9998 18.6602C15.0693 18.7296 15.1526 18.7834 15.2444 18.8183C15.3362 18.8532 15.4343 18.8683 15.5323 18.8627C15.7865 18.8602 16.0323 18.7716 16.2298 18.6115V18.949C15.9979 19.1018 15.7234 19.1767 15.446 19.1627C15.3061 19.1698 15.1663 19.1459 15.0367 19.0927C14.907 19.0396 14.7907 18.9585 14.696 18.8552C14.5008 18.6117 14.4032 18.3042 14.4223 17.9927C14.4088 17.6804 14.5147 17.3747 14.7185 17.1377C14.8113 17.0306 14.9267 16.9454 15.0564 16.8883C15.1861 16.8313 15.3269 16.8037 15.4685 16.8077C15.5964 16.8006 15.7243 16.8225 15.8425 16.8718C15.9607 16.9212 16.0662 16.9967 16.151 17.0927C16.3237 17.3204 16.4089 17.6025 16.391 17.8877L16.3948 18.0827ZM16.0198 17.779C16.0274 17.6052 15.9743 17.4342 15.8698 17.2952C15.8185 17.2372 15.7547 17.1916 15.6833 17.1617C15.6118 17.1319 15.5346 17.1185 15.4573 17.1227C15.3766 17.1217 15.2965 17.1376 15.2223 17.1692C15.1481 17.2008 15.0812 17.2476 15.026 17.3065C14.9026 17.437 14.8249 17.6042 14.8048 17.7827L16.0198 17.779Z" fill="#F2F2F2"></path></g><defs><clipPath id="clip0_2522_857"><rect width="24" height="24" fill="white" transform="translate(0 0.458008)"></rect></clipPath></defs></svg>