<svg xmlns:xlink="http://www.w3.org/1999/xlink" xmlns="http://www.w3.org/2000/svg" width="24" height="25" viewBox="0 0 24 25" fill="none"><g id="Redis" fill="none"><g id="Redis_2" fill="none"><g id="Clip path group" fill="none"><mask id="mask0_2158_3817" style="mask-type:luminance" maskUnits="userSpaceOnUse" x="0" y="2" width="24" height="22" fill="none"><g id="clip-path" fill="none"><path id="Vector" d="M24 2.65234H0V23.2206H24V2.65234Z" fill="#FFFFFF"></path></g></mask><g mask="url(#mask0_2158_3817)" fill="none"><g id="Group" fill="none"><path id="Vector_2" d="M23.0559 18.5079C21.7774 19.1767 15.1422 21.9059 13.7129 22.655C12.2836 23.4041 11.5181 23.3828 10.4002 22.8484C9.28234 22.3141 2.24559 19.4521 0.970359 18.8423C0.327824 18.5407 0 18.2834 0 18.0424V15.6148C0 15.6148 9.19219 13.6199 10.6756 13.0823C12.159 12.5446 12.672 12.5315 13.9325 12.9938C15.193 13.456 22.7494 14.8198 23.9967 15.2722V17.6654C23.9967 17.9146 23.7099 18.1571 23.0559 18.5063V18.5079Z" fill="#A32422"></path><path id="Vector_3" d="M23.0575 16.0918C21.779 16.7573 15.1438 19.4865 13.7145 20.2225C12.2852 20.9585 11.5197 20.9519 10.4019 20.4192C9.28398 19.8865 2.24723 17.0245 0.971995 16.4196C-0.30324 15.8148 -0.327827 15.3919 0.922822 14.9034C2.17347 14.4149 9.19382 11.666 10.6772 11.1251C12.1606 10.5842 12.6737 10.5727 13.9342 11.0366C15.1946 11.5005 21.8019 14.1248 23.0428 14.5821C24.2836 15.0394 24.3409 15.4148 23.0575 16.0787V16.0918Z" fill="#DC382C"></path><path id="Vector_4" d="M23.0559 14.5544C21.7774 15.2216 15.1422 17.9491 13.7129 18.6851C12.2836 19.4211 11.5247 19.4145 10.4068 18.8785C9.2889 18.3425 2.24559 15.4969 0.970359 14.8888C0.327824 14.5839 0 14.3282 0 14.0856V11.6662C0 11.6662 9.19219 9.6648 10.6756 9.12715C12.159 8.5895 12.672 8.57475 13.9325 9.04355C15.193 9.51235 22.7494 10.863 23.9967 11.3187V13.7119C23.9967 13.961 23.7099 14.2102 23.0559 14.5544Z" fill="#A32422"></path><path id="Vector_5" d="M23.0569 12.1278C21.7784 12.7966 15.1432 15.5241 13.7139 16.2601C12.2846 16.9961 11.5191 16.9912 10.4012 16.4568C9.28335 15.9225 2.24661 13.072 0.971372 12.4622C-0.303864 11.8524 -0.326811 11.4377 0.922198 10.9492C2.17121 10.4608 9.1932 7.70533 10.6766 7.17916C12.16 6.65299 12.6731 6.62021 13.9335 7.07753C15.194 7.53486 21.8013 10.1821 23.0421 10.6263C24.2829 11.0705 24.3403 11.4607 23.0569 12.1229V12.1278Z" fill="#DC382C"></path><path id="Vector_6" d="M23.0559 10.4516C21.7774 11.1204 15.1422 13.8496 13.7129 14.5839C12.2836 15.3183 11.5247 15.3134 10.4068 14.7806C9.2889 14.2479 2.24559 11.3941 0.970359 10.786C0.327824 10.4844 0 10.227 0 9.98443V7.55683C0 7.55683 9.19219 5.56196 10.6756 5.02596C12.159 4.48995 12.672 4.47356 13.9325 4.9358C15.193 5.39805 22.7461 6.76183 23.9934 7.21752V9.6107C23.9967 9.86313 23.7099 10.109 23.0559 10.4516Z" fill="#A32422"></path><path id="Vector_7" d="M23.0575 8.02757C21.779 8.68324 15.1438 11.4288 13.7145 12.1583C12.2852 12.8877 11.5197 12.8861 10.4019 12.355C9.28398 11.8239 2.24723 8.96681 0.971995 8.36032C-0.30324 7.75383 -0.327827 7.33257 0.922822 6.8441C2.17347 6.35562 9.19382 3.60183 10.6772 3.06746C12.1606 2.53309 12.6737 2.5167 13.9342 2.97895C15.1946 3.44119 21.8019 6.06877 23.0428 6.52446C24.2836 6.98015 24.3409 7.35879 23.0575 8.02266V8.02757Z" fill="#DC382C"></path></g></g></g><path id="Vector_8" d="M12.3761 4.58082L13.9594 4.0612L13.53 5.08732L15.1413 5.69053L13.0645 5.9069L12.5973 7.02809L11.8466 5.77741L9.44531 5.56104L11.2385 4.91521L10.6992 3.92188L12.3761 4.58082Z" fill="#FFFFFF"></path><path id="Vector_9" d="M12.4752 11.1274L8.59375 9.51611L14.1536 8.66211L12.4752 11.1274Z" fill="#FFFFFF"></path><path id="Vector_10" d="M7.09446 6.3125C8.73358 6.3125 10.0662 6.82884 10.0662 7.45992C10.0662 8.09099 8.7303 8.60733 7.09446 8.60733C5.45862 8.60733 4.12109 8.09099 4.12109 7.45992C4.12109 6.82884 5.4537 6.3125 7.09446 6.3125Z" fill="#FFFFFF"></path><path id="Vector_11" d="M17.6016 6L20.8913 7.29986L17.6048 8.59971L17.6016 6Z" fill="#741113"></path><path id="Vector_12" d="M17.5992 6L17.6024 8.59971L17.2451 8.73904L13.957 7.43919L17.5992 6Z" fill="#AC2724"></path></g></g></svg>