<svg xmlns="http://www.w3.org/2000/svg" xmlns:xlink="http://www.w3.org/1999/xlink" id="Layer_1" x="0px" y="0px" viewBox="0 0 24 24" style="enable-background:new 0 0 24 24;" xml:space="preserve" width="24"  height="24" ><style type="text/css">	.st0{fill:#95BF48;}	.st1{fill:#608F3F;}	.st2{fill:#FEFEFD;}</style><image style="overflow:visible;" width="512" height="512" transform="matrix(0.011 0 0 0.011 28.9593 5.8806)"></image><path class="st0" d="M10.52,2.24c0.16,0,0.32,0,0.47,0c0.23,0.1,0.47,0.19,0.61,0.41c0.09,0.14,0.21,0.14,0.34,0.15 c0.24,0.02,0.46,0.11,0.65,0.28c0.3,0.27,0.5,0.61,0.63,0.98c0.07,0.2,0.14,0.41,0.21,0.62c0.09-0.03,0.17-0.06,0.26-0.08 c0.13-0.04,0.26-0.06,0.39-0.1c0,0.06,0,0.13,0,0.19c0,2.79,0,5.58,0,8.36c0,2.9,0,5.8,0,8.7c-0.27-0.07-0.55-0.14-0.82-0.2 c-0.41-0.09-0.82-0.18-1.23-0.27c-0.39-0.09-0.78-0.18-1.17-0.26c-0.43-0.09-0.86-0.19-1.29-0.28c-0.37-0.08-0.74-0.17-1.11-0.25 c-0.42-0.09-0.84-0.18-1.26-0.28c-0.21-0.05-0.41-0.09-0.62-0.14c-0.46-0.1-0.93-0.2-1.39-0.3c-0.15-0.03-0.29-0.07-0.45-0.11 c0.01-0.14,0.02-0.26,0.03-0.39c0.12-1.22,0.25-2.44,0.37-3.66c0.09-0.93,0.18-1.86,0.28-2.79c0.11-1.05,0.21-2.1,0.32-3.16 C5.8,9.11,5.86,8.54,5.92,7.97c0.02-0.14,0.05-0.29,0.2-0.35c0.46-0.19,0.92-0.39,1.39-0.56C7.73,6.98,7.9,6.89,7.88,6.62 c0-0.01,0-0.03,0-0.04C8.1,5.43,8.48,4.34,9.13,3.36c0.23-0.35,0.51-0.67,0.88-0.88C10.18,2.39,10.35,2.32,10.52,2.24z M7.54,15.67 c0,0.01-0.01,0.03-0.01,0.06c-0.09,0.49-0.17,0.98-0.27,1.47c-0.03,0.15,0.01,0.24,0.12,0.33c0.12,0.1,0.24,0.21,0.36,0.31 c0.27,0.23,0.58,0.39,0.91,0.45c0.31,0.06,0.64,0.06,0.96,0.06c0.35,0,0.65-0.15,0.91-0.35c0.41-0.32,0.67-0.75,0.83-1.25 c0.2-0.62,0.24-1.26,0.17-1.9c-0.09-0.81-0.49-1.47-1.09-2c-0.3-0.27-0.62-0.53-0.91-0.82c-0.25-0.25-0.27-0.58-0.17-0.91 c0.1-0.31,0.34-0.51,0.66-0.55c0.25-0.04,0.51-0.03,0.76,0.01c0.2,0.03,0.39,0.13,0.59,0.2c0.15-0.71,0.3-1.42,0.45-2.14 c0.03-0.12-0.05-0.18-0.14-0.2c-0.26-0.05-0.52-0.1-0.78-0.13c-0.12-0.01-0.24,0.04-0.36,0.04C10,8.38,9.52,8.57,9.08,8.89 C8.65,9.21,8.34,9.62,8.12,10.1c-0.35,0.75-0.45,1.54-0.36,2.36c0.08,0.69,0.39,1.26,0.91,1.72c0.23,0.2,0.45,0.42,0.64,0.65 c0.27,0.33,0.36,0.71,0.23,1.12c-0.11,0.35-0.45,0.5-0.7,0.43c-0.19-0.05-0.38-0.12-0.55-0.21C8.03,16.02,7.79,15.84,7.54,15.67z  M11.18,3.01c-0.06-0.04-0.11-0.08-0.17-0.09c-0.31-0.09-0.6-0.03-0.85,0.16C9.81,3.33,9.55,3.66,9.34,4.03 C8.97,4.66,8.7,5.33,8.51,6.04c-0.06,0.21-0.1,0.43-0.15,0.68C8.5,6.65,8.6,6.61,8.7,6.57c0.29-0.11,0.58-0.22,0.87-0.33 c0.04-0.01,0.07-0.07,0.08-0.11c0.1-0.39,0.17-0.78,0.29-1.16C10.19,4.22,10.52,3.52,11.18,3.01z M10.21,5.98 c0.03-0.01,0.07-0.02,0.1-0.03c0.44-0.17,0.87-0.35,1.31-0.52c0.09-0.04,0.13-0.09,0.13-0.18c-0.03-0.34-0.04-0.69-0.08-1.03 c-0.03-0.23-0.09-0.45-0.14-0.67C10.89,3.78,10.28,5.23,10.21,5.98z M12.95,4.89c-0.1-0.62-0.49-1.36-0.89-1.42 c0.07,0.55,0.14,1.11,0.21,1.68C12.48,5.07,12.72,4.98,12.95,4.89z" fill="#EF372C"></path><path class="st1" d="M14.09,4.5c0.05,0.02,0.11,0.03,0.14,0.07c0.3,0.37,0.59,0.75,0.88,1.12c0.07,0.09,0.15,0.15,0.29,0.14 c0.29-0.01,0.58,0.01,0.87,0c0.13,0,0.2,0.06,0.21,0.19c0.08,0.69,0.16,1.37,0.24,2.06c0.08,0.65,0.16,1.3,0.23,1.95 c0.07,0.64,0.14,1.27,0.22,1.91c0.07,0.65,0.15,1.3,0.23,1.95c0.07,0.63,0.14,1.26,0.22,1.9c0.08,0.66,0.15,1.31,0.23,1.97 c0.06,0.55,0.12,1.1,0.19,1.65c0.04,0.31,0.07,0.62,0.11,0.92c0.01,0.04,0.01,0.09,0.01,0.15c-0.28,0.09-0.56,0.17-0.83,0.26 c-0.44,0.14-0.87,0.28-1.31,0.42c-0.26,0.08-0.51,0.17-0.77,0.25c-0.36,0.12-0.71,0.23-1.07,0.35c-0.03,0.01-0.06,0.01-0.09,0.01 c0-2.9,0-5.8,0-8.7c0-2.79,0-5.58,0-8.36C14.08,4.63,14.08,4.57,14.09,4.5z" fill="#608F3F"></path><path class="st2" d="M7.54,15.67c0.26,0.17,0.49,0.35,0.75,0.5c0.17,0.1,0.36,0.17,0.55,0.21c0.25,0.06,0.6-0.08,0.7-0.43 c0.13-0.42,0.04-0.8-0.23-1.12c-0.19-0.24-0.42-0.45-0.64-0.65c-0.52-0.47-0.83-1.03-0.91-1.72c-0.09-0.82,0.01-1.61,0.36-2.36 c0.22-0.48,0.53-0.89,0.96-1.21C9.52,8.57,10,8.38,10.54,8.35c0.12-0.01,0.24-0.06,0.36-0.04c0.26,0.03,0.52,0.08,0.78,0.13 c0.1,0.02,0.17,0.07,0.14,0.2c-0.15,0.71-0.3,1.43-0.45,2.14c-0.2-0.07-0.39-0.17-0.59-0.2c-0.25-0.04-0.51-0.05-0.76-0.01 c-0.32,0.05-0.55,0.24-0.66,0.55c-0.11,0.33-0.09,0.65,0.17,0.91c0.29,0.29,0.6,0.54,0.91,0.82c0.6,0.54,0.99,1.19,1.09,2 c0.07,0.65,0.03,1.28-0.17,1.9c-0.16,0.5-0.42,0.93-0.83,1.25c-0.26,0.2-0.57,0.36-0.91,0.35c-0.32,0-0.64,0-0.96-0.06 C8.31,18.22,8,18.06,7.73,17.84c-0.12-0.1-0.24-0.21-0.36-0.31c-0.11-0.09-0.15-0.18-0.12-0.33c0.1-0.49,0.18-0.98,0.27-1.47 C7.53,15.7,7.54,15.68,7.54,15.67z" fill="#FEFEFD"></path></svg>