<svg xmlns="http://www.w3.org/2000/svg" xmlns:xlink="http://www.w3.org/1999/xlink" id="Layer_1" x="0px" y="0px" viewBox="0 0 24 24" style="enable-background:new 0 0 24 24;" xml:space="preserve" width="24"  height="24" ><path d="M6.92,14.87c-1.92,0-3.44-1.57-3.38-3.49c0.03-0.9,0.37-1.67,1-2.3c1.45-1.45,2.9-2.9,4.35-4.35 c0.28-0.28,0.65-0.29,0.9-0.05c0.25,0.25,0.24,0.61-0.04,0.9c-1.45,1.45-2.9,2.9-4.35,4.35c-0.72,0.72-0.87,1.78-0.39,2.63 c0.72,1.28,2.41,1.52,3.46,0.49c1.46-1.44,2.9-2.9,4.35-4.35c0.4-0.4,0.8-0.8,1.2-1.2c0.29-0.29,0.66-0.3,0.91-0.05 c0.24,0.25,0.22,0.62-0.06,0.9c-1.85,1.85-3.7,3.7-5.55,5.55C8.67,14.54,7.83,14.87,6.92,14.87z"></path><path d="M17.68,8.51c2.28,0,3.79,1.49,3.79,3.36c0,0.89-0.28,1.69-0.91,2.32c-1.49,1.51-2.99,3-4.49,4.5 c-0.25,0.25-0.62,0.25-0.86,0.02c-0.25-0.24-0.24-0.61,0.03-0.88c1.42-1.42,2.84-2.85,4.27-4.27c0.43-0.43,0.71-0.92,0.75-1.54 c0.05-0.9-0.45-1.74-1.27-2.12c-0.82-0.38-1.8-0.21-2.45,0.44c-1.52,1.52-3.04,3.04-4.56,4.56c-0.34,0.34-0.68,0.68-1.02,1.02 c-0.28,0.28-0.64,0.29-0.89,0.04c-0.24-0.25-0.23-0.61,0.04-0.88c1.86-1.86,3.71-3.72,5.58-5.58C16.35,8.83,17.16,8.51,17.68,8.51z"></path><path d="M10.51,18.87c-0.9-0.01-1.69-0.32-2.35-0.95c-0.27-0.26-0.29-0.63-0.05-0.88c0.24-0.25,0.59-0.25,0.87,0 c1,0.88,2.23,0.85,3.17-0.09c1.69-1.69,3.38-3.38,5.07-5.07c0.19-0.19,0.4-0.27,0.66-0.2c0.39,0.11,0.55,0.59,0.31,0.92 c-0.07,0.09-0.16,0.18-0.24,0.26c-1.64,1.64-3.28,3.27-4.91,4.92C12.33,18.47,11.51,18.85,10.51,18.87z"></path><path d="M6.68,11.11c0.07-0.14,0.12-0.3,0.23-0.41c1.76-1.77,3.51-3.54,5.29-5.28c1.26-1.24,3.39-1.2,4.65,0.03 c0.28,0.27,0.31,0.62,0.07,0.88c-0.24,0.26-0.6,0.26-0.9-0.01C15.08,5.47,13.81,5.5,12.9,6.4c-1.7,1.69-3.39,3.39-5.08,5.09 c-0.2,0.2-0.41,0.3-0.69,0.21C6.88,11.62,6.73,11.4,6.68,11.11z"></path></svg>