<svg xmlns="http://www.w3.org/2000/svg" xmlns:xlink="http://www.w3.org/1999/xlink" id="Layer_1" x="0px" y="0px" viewBox="0 0 24 24" style="enable-background:new 0 0 24 24;" xml:space="preserve" width="24"  height="24" ><style type="text/css">	.st0{fill:#118CC3;}</style><g>	<g>		<path class="st0" d="M22.01,11.49c0,5.54-4.49,10.01-10.05,10.01c-5.51,0-9.98-4.51-9.97-10.05c0-5.5,4.51-9.97,10.04-9.97   C17.53,1.47,22.01,5.97,22.01,11.49z M2.42,11.48c0,5.26,4.29,9.59,9.53,9.59c5.33,0,9.64-4.28,9.64-9.58   c0-5.28-4.3-9.59-9.57-9.59C6.73,1.9,2.42,6.2,2.42,11.48z" fill="#EF372C"></path>		<path class="st0" d="M6.75,7.47c0.32-0.03,0.62-0.06,0.91-0.08c0.2-0.02,0.32-0.11,0.37-0.28c0.07-0.25-0.11-0.48-0.38-0.46   C7.29,6.66,6.92,6.7,6.55,6.71C6.04,6.73,5.53,6.74,5.01,6.75c-0.05,0-0.09-0.01-0.15-0.02c2.66-4.22,8.89-5.25,12.88-1.63   c-0.1,0.01-0.18,0.01-0.26,0.03c-0.81,0.15-1.36,0.94-1.23,1.77c0.06,0.4,0.22,0.76,0.42,1.1c0.17,0.29,0.34,0.57,0.51,0.86   c0.62,1.07,0.78,2.21,0.42,3.4c-0.42,1.44-0.86,2.87-1.29,4.3c-0.01,0.02-0.02,0.03-0.04,0.07c-1.03-3.06-2.05-6.1-3.08-9.16   c0.19-0.02,0.36-0.03,0.53-0.05C13.87,7.41,14,7.4,14.13,7.39c0.24-0.02,0.38-0.18,0.37-0.4c-0.01-0.21-0.17-0.35-0.41-0.33   c-0.71,0.03-1.41,0.1-2.12,0.1c-0.76,0-1.51-0.06-2.27-0.1C9.39,6.63,9.23,6.71,9.18,6.93C9.13,7.17,9.26,7.36,9.51,7.38   c0.25,0.03,0.5,0.05,0.74,0.07c0.1,0.01,0.16,0.03,0.19,0.14c0.41,1.15,0.83,2.29,1.25,3.44c0.02,0.06,0.02,0.15,0,0.21   c-0.59,1.78-1.19,3.56-1.78,5.34c-0.01,0.03-0.03,0.07-0.06,0.14C8.82,13.61,7.79,10.55,6.75,7.47z" fill="#EF372C"></path>		<path class="st0" d="M14.82,19.58c-1.13,0.57-4.03,0.65-5.23,0.13c0.85-2.46,1.69-4.92,2.54-7.38c0.01,0,0.02,0,0.03,0   C13.05,14.74,13.93,17.16,14.82,19.58z" fill="#EF372C"></path>		<path class="st0" d="M8.22,19.18c-4.32-2.11-5.86-7.21-4.07-11.15C5.5,11.75,6.86,15.45,8.22,19.18z" fill="#EF372C"></path>		<path class="st0" d="M19.59,7.52c2.11,3.9,0.78,9.04-3.22,11.35c0.02-0.07,0.03-0.12,0.05-0.16c0.84-2.42,1.68-4.84,2.51-7.26   c0.19-0.56,0.38-1.12,0.53-1.69c0.17-0.66,0.21-1.35,0.15-2.03C19.59,7.65,19.59,7.59,19.59,7.52z" fill="#EF372C"></path>	</g></g></svg>